<?xml version="1.0" encoding="UTF-8" standalone="no"?>
<svg
   xmlns:dc="http://purl.org/dc/elements/1.1/"
   xmlns:cc="http://creativecommons.org/ns#"
   xmlns:rdf="http://www.w3.org/1999/02/22-rdf-syntax-ns#"
   xmlns:svg="http://www.w3.org/2000/svg"
   xmlns="http://www.w3.org/2000/svg"
   xmlns:xlink="http://www.w3.org/1999/xlink"
   xmlns:sodipodi="http://sodipodi.sourceforge.net/DTD/sodipodi-0.dtd"
   xmlns:inkscape="http://www.inkscape.org/namespaces/inkscape"
   class="fluid-svg"
   width="1353.2"
   height="335.9"
   viewBox="0 0 1353.2 335.9"
   id="svg2"
   version="1.1"
   inkscape:version="0.91 r13725"
   sodipodi:docname="road-graphic-truck-04.svg">
  <metadata
     id="metadata480">
    <rdf:RDF>
      <cc:Work
         rdf:about="">
        <dc:format>image/svg+xml</dc:format>
        <dc:type
           rdf:resource="http://purl.org/dc/dcmitype/StillImage" />
      </cc:Work>
    </rdf:RDF>
  </metadata>
  <defs
     id="defs478">
    <clipPath
       id="SVGID_2_">
      <use
         height="100%"
         width="100%"
         y="0"
         x="0"
         style="overflow:visible"
         xlink:href="#SVGID_1_"
         id="use5660" />
    </clipPath>
  </defs>
  <sodipodi:namedview
     pagecolor="#ffffff"
     bordercolor="#666666"
     borderopacity="1"
     objecttolerance="10"
     gridtolerance="10"
     guidetolerance="10"
     inkscape:pageopacity="0"
     inkscape:pageshadow="2"
     inkscape:window-width="1729"
     inkscape:window-height="854"
     id="namedview476"
     showgrid="false"
     showguides="false"
     inkscape:zoom="2.1460243"
     inkscape:cx="638.10243"
     inkscape:cy="123.36853"
     inkscape:window-x="197"
     inkscape:window-y="0"
     inkscape:window-maximized="0"
     inkscape:current-layer="svg2" />
  <g
     id="g4">
    <path
       style="fill:none;stroke:#314340;stroke-width:40;stroke-miterlimit:10"
       inkscape:connector-curvature="0"
       stroke-miterlimit="10"
       d="m 22.3,97.6 c 0,0 5.7,142.5 422.6,111.3 445.6,-33.3 718.4,8.4 882,89.6"
       id="path6" />
    <path
       style="fill:none;stroke:#ffffff;stroke-linecap:round;stroke-miterlimit:10;stroke-dasharray:6, 12"
       inkscape:connector-curvature="0"
       stroke-miterlimit="10"
       d="m 30.3,96.6 c 0,0 -5.8,143.5 414.6,112.3 445.6,-33.1 718.4,8.4 882,89.6"
       id="path8" />
    <path
       style="fill:none"
       inkscape:connector-curvature="0"
       d="m 17.2,60.1 35,152 1149,65 69.5,34.5 82.5,-37.5 -131,-249 z"
       id="path10" />
    <ellipse
       style="opacity:0.2"
       transform="matrix(1,-0.016,0.016,1,-4.854,21.354)"
       cx="1304.6"
       cy="307.79999"
       rx="5"
       ry="1.3"
       id="ellipse12" />
    <path
       style="fill:#7d4b19"
       inkscape:connector-curvature="0"
       d="m 1303.1,307.4 1.5,0.3 1.5,-0.3 0.1,-9.7 -3,-0.1 z"
       id="path14" />
    <path
       style="fill:#603913"
       inkscape:connector-curvature="0"
       d="m 1303.1,307.4 1.3,0.3 0.1,-10 -1.3,-0.1 z"
       id="path16" />
    <path
       style="opacity:0.3;fill:#1d1d1b"
       inkscape:connector-curvature="0"
       d="m 1303.1,303.6 3,0 0.1,-5.9 -3,-0.1 z"
       id="path18" />
    <path
       style="fill:#39b54a"
       inkscape:connector-curvature="0"
       d="m 1308.4,302.2 3.6,-6 -3.5,-6.2 -7.1,-0.1 -3.6,6.1 3.5,6.2 z"
       id="path20" />
    <path
       style="fill:#7d4b19"
       inkscape:connector-curvature="0"
       d="m 1305.9,305.16 -0.427,-0.554 1.662,-1.284 0.428,0.554 z"
       id="path22" />
    <path
       style="fill:#30993f"
       inkscape:connector-curvature="0"
       d="m 1308.4,302.2 -3.6,-6.4 -3.5,6.4 z"
       id="path24" />
    <path
       style="fill:#37ad47"
       inkscape:connector-curvature="0"
       d="m 1297.8,296 7,-0.2 -3.5,6.4 z"
       id="path26" />
    <path
       style="fill:#35a644"
       inkscape:connector-curvature="0"
       d="m 1312,296.2 -7.2,-0.4 3.6,6.4 z"
       id="path28" />
    <path
       style="fill:#39b048"
       inkscape:connector-curvature="0"
       d="m 1308.5,290 -3.7,5.8 7.2,0.4 z"
       id="path30" />
    <path
       style="fill:#3bba4c"
       inkscape:connector-curvature="0"
       d="m 1301.4,289.9 3.4,5.9 3.7,-5.8 z"
       id="path32" />
    <path
       style="fill:#39b54a"
       inkscape:connector-curvature="0"
       d="m 1297.8,296 7,-0.2 -3.4,-5.9 z"
       id="path34" />
    <ellipse
       style="opacity:0.2"
       transform="matrix(1,-0.016,0.016,1,-5.114,21.199)"
       cx="1287.7"
       cy="321.89999"
       rx="8"
       ry="2"
       id="ellipse36" />
    <path
       style="fill:#7d4b19"
       inkscape:connector-curvature="0"
       d="m 1285.3,321.2 2.3,0.6 2.4,-0.5 0.2,-15.6 -4.8,0 z"
       id="path38" />
    <path
       style="fill:#603913"
       inkscape:connector-curvature="0"
       d="m 1285.3,321.2 2.1,0.6 0.1,-16.1 -2.1,0 z"
       id="path40" />
    <path
       style="opacity:0.3;fill:#1d1d1b"
       inkscape:connector-curvature="0"
       d="m 1290.007,315.213 -4.8,-0.037 0.074,-9.6 4.8,0.037 z"
       id="path42" />
    <path
       style="fill:#39b54a"
       inkscape:connector-curvature="0"
       d="m 1293.8,313 5.7,-9.7 -5.6,-9.9 -11.3,-0.1 -5.8,9.8 5.6,9.9 z"
       id="path44" />
    <path
       style="fill:#7d4b19"
       inkscape:connector-curvature="0"
       d="m 1289.732,317.732 -0.673,-0.87 2.69,-2.08 0.672,0.87 z"
       id="path46" />
    <path
       style="fill:#30993f"
       inkscape:connector-curvature="0"
       d="m 1293.8,313 -5.9,-10.3 -5.5,10.3 z"
       id="path48" />
    <path
       style="fill:#37ad47"
       inkscape:connector-curvature="0"
       d="m 1276.8,303.1 11.1,-0.4 -5.5,10.3 z"
       id="path50" />
    <path
       style="fill:#35a644"
       inkscape:connector-curvature="0"
       d="m 1299.5,303.3 -11.6,-0.6 5.9,10.3 z"
       id="path52" />
    <path
       style="fill:#39b048"
       inkscape:connector-curvature="0"
       d="m 1293.9,293.4 -6,9.3 11.6,0.6 z"
       id="path54" />
    <path
       style="fill:#3bba4c"
       inkscape:connector-curvature="0"
       d="m 1282.6,293.3 5.3,9.4 6,-9.3 z"
       id="path56" />
    <path
       style="fill:#39b54a"
       inkscape:connector-curvature="0"
       d="m 1276.8,303.1 11.1,-0.4 -5.3,-9.4 z"
       id="path58" />
    <ellipse
       style="opacity:0.2"
       transform="matrix(1,-0.016,0.016,1,-4.694,20.754)"
       cx="1266.4"
       cy="297.29999"
       rx="4.0999999"
       ry="1"
       id="ellipse60" />
    <path
       style="fill:#7d4b19"
       inkscape:connector-curvature="0"
       d="m 1265.2,297 1.2,0.3 1.2,-0.3 0.1,-7.9 -2.4,-0.1 z"
       id="path62" />
    <path
       style="fill:#603913"
       inkscape:connector-curvature="0"
       d="m 1265.2,297 1.1,0.2 0.1,-8.2 -1.1,0 z"
       id="path64" />
    <path
       style="opacity:0.3;fill:#1d1d1b"
       inkscape:connector-curvature="0"
       d="m 1267.675,293.872 -2.4,-0.017 0.036,-4.9 2.4,0.017 z"
       id="path66" />
    <path
       style="fill:#39b54a"
       inkscape:connector-curvature="0"
       d="m 1269.5,292.8 3,-5 -2.9,-5 -5.8,-0.1 -2.9,5 2.8,5.1 z"
       id="path68" />
    <path
       style="fill:#7d4b19"
       inkscape:connector-curvature="0"
       d="m 1267.48,295.247 -0.367,-0.475 1.346,-1.038 0.365,0.476 z"
       id="path70" />
    <path
       style="fill:#30993f"
       inkscape:connector-curvature="0"
       d="m 1269.5,292.8 -2.9,-5.3 -2.9,5.3 z"
       id="path72" />
    <path
       style="fill:#37ad47"
       inkscape:connector-curvature="0"
       d="m 1260.9,287.7 5.7,-0.2 -2.9,5.3 z"
       id="path74" />
    <path
       style="fill:#35a644"
       inkscape:connector-curvature="0"
       d="m 1272.5,287.8 -5.9,-0.3 2.9,5.3 z"
       id="path76" />
    <path
       style="fill:#39b048"
       inkscape:connector-curvature="0"
       d="m 1269.6,282.8 -3,4.7 5.9,0.3 z"
       id="path78" />
    <path
       style="fill:#3bba4c"
       inkscape:connector-curvature="0"
       d="m 1263.8,282.7 2.8,4.8 3,-4.7 z"
       id="path80" />
    <path
       style="fill:#39b54a"
       inkscape:connector-curvature="0"
       d="m 1260.9,287.7 5.7,-0.2 -2.8,-4.8 z"
       id="path82" />
    <path
       style="opacity:0.2"
       inkscape:connector-curvature="0"
       d="m 1343.8,331.8 c 0,2.1 -6.6,3.9 -14.9,4.1 -8.3,0.1 -15,-1.5 -15,-3.6 0,-2.1 6.6,-3.9 14.9,-4.1 8.2,-0.1 15,1.5 15,3.6 z"
       id="path84" />
    <path
       style="fill:#7d4b19"
       inkscape:connector-curvature="0"
       d="m 1324.3,330.9 4.4,1 4.6,-0.9 0.2,-29.4 -9,0 z"
       id="path86" />
    <path
       style="fill:#603913"
       inkscape:connector-curvature="0"
       d="m 1324.3,330.9 4,1 0.3,-30.3 -4.1,0 z"
       id="path88" />
    <path
       style="opacity:0.3;fill:#1d1d1b"
       inkscape:connector-curvature="0"
       d="m 1324.4,319.5 9,0.1 0.1,-18 -9,0 z"
       id="path90" />
    <path
       style="fill:#39b54a"
       inkscape:connector-curvature="0"
       d="m 1340.3,315.5 10.9,-18.5 -10.6,-18.5 -21.3,-0.2 -10.9,18.4 10.5,18.6 z"
       id="path92" />
    <path
       style="fill:#7d4b19"
       inkscape:connector-curvature="0"
       d="m 1331.4,322.8 1.3,1.6 5,-3.9 -1.3,-1.6 z"
       id="path94" />
    <path
       style="fill:#30993f"
       inkscape:connector-curvature="0"
       d="m 1340.3,315.5 -11,-19.6 -10.4,19.4 z"
       id="path96" />
    <path
       style="fill:#37ad47"
       inkscape:connector-curvature="0"
       d="m 1308.4,296.7 20.9,-0.8 -10.4,19.4 z"
       id="path98" />
    <path
       style="fill:#35a644"
       inkscape:connector-curvature="0"
       d="m 1351.2,297 -21.9,-1.1 11,19.6 z"
       id="path100" />
    <path
       style="fill:#39b048"
       inkscape:connector-curvature="0"
       d="m 1340.6,278.5 -11.3,17.4 21.9,1.1 z"
       id="path102" />
    <path
       style="fill:#3bba4c"
       inkscape:connector-curvature="0"
       d="m 1319.3,278.3 10,17.6 11.3,-17.4 z"
       id="path104" />
    <path
       style="fill:#39b54a"
       inkscape:connector-curvature="0"
       d="m 1308.4,296.7 20.9,-0.8 -10,-17.6 z"
       id="path106" />
  </g>
  <g
     id="g108"
     inkscape:export-filename="/tmp/a.png"
     inkscape:export-xdpi="90"
     inkscape:export-ydpi="90">
    <path
       style="fill:#ffffff"
       inkscape:connector-curvature="0"
       d="m 631,189.7 29.1,0.5 -7.7,-18.6 -29.1,-0.5 z"
       id="path110" />
    <path
       style="fill:#cccecf"
       inkscape:connector-curvature="0"
       d="m 660.1,190.2 12,-12.4 -7.7,-18.6 -12,12.4 z"
       id="path112" />
    <path
       style="fill:#9f1622"
       inkscape:connector-curvature="0"
       d="m 654.8,173.8 10,-10.3 -0.8,-2 -10,10.4 z"
       id="path114" />
    <path
       style="fill:#cc9034"
       inkscape:connector-curvature="0"
       d="m 655.9,176.4 10,-10.4 -0.8,-1.9 -10,10.3 z"
       id="path116" />
    <path
       style="fill:#d9dbdc"
       inkscape:connector-curvature="0"
       d="m 623.3,171.1 12,-12.3 29.1,0.4 -12,12.4 z"
       id="path118" />
    <ellipse
       style="fill:#231f20"
       transform="matrix(-0.9,0.436,-0.436,-0.9,1328.499,70.622)"
       cx="656.09998"
       cy="187.8"
       rx="1.8"
       ry="4"
       id="ellipse120" />
    <path
       style="fill:#231f20"
       inkscape:connector-curvature="0"
       d="m 658.1,191.2 -2.4,2.3 -3.6,-6.5 2.1,-2.7 z"
       id="path122" />
    <ellipse
       style="fill:#404041"
       transform="matrix(-0.9,0.436,-0.436,-0.9,1325.249,75.965)"
       cx="653.90002"
       cy="190.2"
       rx="1.8"
       ry="3.7"
       id="ellipse124" />
    <ellipse
       style="fill:none;stroke:#696a6c;stroke-width:0.25;stroke-miterlimit:10"
       transform="matrix(-0.9,0.436,-0.436,-0.9,1325.274,76.062)"
       stroke-miterlimit="10"
       cx="653.90002"
       cy="190.3"
       rx="1.5"
       ry="3.2"
       id="ellipse126" />
    <ellipse
       style="fill:#fdc163"
       transform="matrix(-0.9,0.436,-0.436,-0.9,1325.269,76.072)"
       cx="653.90002"
       cy="190.2"
       rx="0.69999999"
       ry="1.5"
       id="ellipse128" />
    <ellipse
       style="fill:#bd924a"
       transform="matrix(-0.899,0.437,-0.437,-0.899,1325.511,75.343)"
       cx="654.09998"
       cy="190.10001"
       rx="0.5"
       ry="1.2"
       id="ellipse130" />
    <path
       style="fill:#ffffff"
       inkscape:connector-curvature="0"
       d="m 660,190.2 -3.1,0 -1.3,-1.8 -4.8,0.1 0.2,1.6 -1.7,-0.1 -1.4,-3.3 7.6,-3.6 1.8,2.5 z"
       id="path132" />
    <ellipse
       style="fill:#231f20"
       transform="matrix(-0.9,0.436,-0.436,-0.9,1312.121,74.056)"
       cx="647.59998"
       cy="187.7"
       rx="1.8"
       ry="4"
       id="ellipse134" />
    <path
       style="fill:#231f20"
       inkscape:connector-curvature="0"
       d="m 649.5,191.1 -2.4,2.3 -3.6,-6.6 2.1,-2.6 z"
       id="path136" />
    <path
       style="fill:#404041"
       inkscape:connector-curvature="0"
       d="m 643.7,190.9 c 0.9,1.9 2.3,3 3.2,2.6 0.9,-0.4 0.9,-2.3 0,-4.1 -0.9,-1.9 -2.3,-3 -3.2,-2.6 -0.9,0.3 -0.9,2.2 0,4.1 z"
       id="path138" />
    <ellipse
       style="fill:none;stroke:#696a6c;stroke-width:0.25;stroke-miterlimit:10"
       transform="matrix(-0.9,0.436,-0.436,-0.9,1308.944,79.774)"
       stroke-miterlimit="10"
       cx="645.29999"
       cy="190.10001"
       rx="1.5"
       ry="3.2"
       id="ellipse140" />
    <path
       style="fill:#fdc163"
       inkscape:connector-curvature="0"
       d="m 644.7,190.4 c 0.4,0.8 1,1.2 1.3,1.1 0.4,-0.2 0.3,-0.9 0,-1.7 -0.4,-0.8 -1,-1.2 -1.3,-1.1 -0.4,0.2 -0.4,0.9 0,1.7 z"
       id="path142" />
    <ellipse
       style="fill:#bd924a"
       transform="matrix(-0.899,0.437,-0.437,-0.899,1309.105,78.608)"
       cx="645.5"
       cy="190"
       rx="0.5"
       ry="1.2"
       id="ellipse144" />
    <path
       style="fill:#ffffff"
       inkscape:connector-curvature="0"
       d="m 651.4,190.1 -3.1,-0.1 -1.2,-1.7 -4.9,0.1 0.2,1.6 -1.7,-0.1 -1.4,-3.4 7.6,-3.5 1.8,2.4 z"
       id="path146" />
    <ellipse
       style="fill:#231f20"
       transform="matrix(-0.9,0.437,-0.437,-0.9,1293.828,77.881)"
       cx="638"
       cy="187.7"
       rx="1.8"
       ry="4"
       id="ellipse148" />
    <path
       style="fill:#231f20"
       inkscape:connector-curvature="0"
       d="m 639.9,191.1 -2.4,2.3 -3.6,-6.5 2.1,-2.7 z"
       id="path150" />
    <path
       style="fill:#404041"
       inkscape:connector-curvature="0"
       d="m 634.1,190.9 c 0.9,1.9 2.3,3 3.2,2.6 0.9,-0.4 0.9,-2.3 0,-4.1 -0.9,-1.9 -2.3,-3 -3.2,-2.6 -0.9,0.4 -0.9,2.2 0,4.1 z"
       id="path152" />
    <ellipse
       style="fill:none;stroke:#696a6c;stroke-width:0.25;stroke-miterlimit:10"
       transform="matrix(-0.9,0.436,-0.436,-0.9,1290.704,83.909)"
       stroke-miterlimit="10"
       cx="635.70001"
       cy="190.2"
       rx="1.5"
       ry="3.2"
       id="ellipse154" />
    <ellipse
       style="fill:#fdc163"
       transform="matrix(-0.9,0.436,-0.436,-0.9,1290.657,83.651)"
       cx="635.70001"
       cy="190.10001"
       rx="0.69999999"
       ry="1.5"
       id="ellipse156" />
    <ellipse
       style="fill:#bd924a"
       transform="matrix(-0.899,0.437,-0.437,-0.899,1290.937,83.15)"
       cx="635.90002"
       cy="190"
       rx="0.5"
       ry="1.2"
       id="ellipse158" />
    <path
       style="fill:#ffffff"
       inkscape:connector-curvature="0"
       d="m 641.8,190.1 -3.1,0 -1.2,-1.8 -4.9,0.1 0.2,1.6 -1.7,-0.1 -1.3,-3.3 7.5,-3.6 1.8,2.5 z"
       id="path160" />
    <path
       style="fill:#be1e2d"
       inkscape:connector-curvature="0"
       d="m 630.5,185.3 26.1,0.3 -0.5,-1.1 -26.1,-0.4 z"
       id="path162" />
    <path
       style="fill:#faaf40"
       inkscape:connector-curvature="0"
       d="m 631.1,186.7 26.1,0.3 -0.5,-1.1 -26.1,-0.4 z"
       id="path164" />
    <ellipse
       style="fill:#231f20"
       transform="matrix(-0.895,0.446,-0.446,-0.895,1433.032,21.969)"
       cx="713.90002"
       cy="179.8"
       rx="1.8"
       ry="4"
       id="ellipse166" />
    <path
       style="fill:#231f20"
       inkscape:connector-curvature="0"
       d="m 715.9,183.2 -2.3,2.3 -3.7,-6.5 2.1,-2.7 z"
       id="path168" />
    <ellipse
       style="fill:#404041"
       transform="matrix(-0.895,0.447,-0.447,-0.895,1429.85,27.249)"
       cx="711.70001"
       cy="182.3"
       rx="1.8"
       ry="3.7"
       id="ellipse170" />
    <ellipse
       style="fill:none;stroke:#696a6c;stroke-width:0.25;stroke-miterlimit:10"
       transform="matrix(-0.895,0.447,-0.447,-0.895,1429.947,27.676)"
       stroke-miterlimit="10"
       cx="711.70001"
       cy="182.3"
       rx="1.5"
       ry="3.2"
       id="ellipse172" />
    <ellipse
       style="fill:#fdc163"
       transform="matrix(-0.894,0.448,-0.448,-0.894,1429.697,26.536)"
       cx="711.70001"
       cy="182.3"
       rx="0.69999999"
       ry="1.5"
       id="ellipse174" />
    <ellipse
       style="fill:#bd924a"
       transform="matrix(-0.895,0.446,-0.446,-0.895,1430.307,27.633)"
       cx="711.90002"
       cy="182.2"
       rx="0.5"
       ry="1.2"
       id="ellipse176" />
    <path
       style="fill:#5a7d83"
       inkscape:connector-curvature="0"
       d="m 711.5,174.5 1,0 1.2,-4.5 -1,-0.1 -2.2,2.2 z"
       id="path178" />
    <path
       style="fill:#668b92"
       inkscape:connector-curvature="0"
       d="m 712.5,174.5 2.2,-2.2 -1,-2.3 -2.2,2.2 z"
       id="path180" />
    <path
       style="fill:#ffffff"
       inkscape:connector-curvature="0"
       d="m 663.6,190.5 29,0.5 -7.7,-18.6 -29,-0.5 z"
       id="path182" />
    <path
       style="fill:#cccecf"
       inkscape:connector-curvature="0"
       d="M 692.6,191 704.7,178.6 697,160 684.9,172.4 Z"
       id="path184" />
    <path
       style="fill:#9f1622"
       inkscape:connector-curvature="0"
       d="m 687.3,174.6 10.1,-10.4 -0.8,-1.9 -10.1,10.4 z"
       id="path186" />
    <path
       style="fill:#cc9034"
       inkscape:connector-curvature="0"
       d="m 688.4,177.1 10,-10.3 -0.8,-1.9 -10,10.3 z"
       id="path188" />
    <path
       style="fill:#d9dbdc"
       inkscape:connector-curvature="0"
       d="m 655.9,171.9 12,-12.3 29.1,0.4 -12.1,12.4 z"
       id="path190" />
    <path
       style="fill:#79a3ad"
       inkscape:connector-curvature="0"
       d="m 694,189.7 14.7,0.2 -2.2,-5.3 -8.7,-7 -8.9,-0.2 z"
       id="path192" />
    <path
       style="fill:#65bae8"
       inkscape:connector-curvature="0"
       d="m 703.1,184.2 -6,-5.2 -6,-0.2 2.2,5.4"
       id="path194" />
    <path
       style="fill:#ffffff"
       inkscape:connector-curvature="0"
       d="m 703.5,180 14.7,0.2 -2.2,-5.3 -8.7,-7 -8.9,-0.1 z"
       id="path196" />
    <path
       style="fill:#668b92"
       inkscape:connector-curvature="0"
       d="m 688.9,177.4 9.5,-9.6 8.9,0.1 -9.5,9.7 z"
       id="path198" />
    <path
       style="fill:#739ca5"
       inkscape:connector-curvature="0"
       d="m 706.5,184.6 9.5,-9.7 -8.7,-7 -9.5,9.7 z"
       id="path200" />
    <path
       style="fill:#668b92"
       inkscape:connector-curvature="0"
       d="m 708.7,189.9 9.5,-9.7 -2.2,-5.3 -9.5,9.7 z"
       id="path202" />
    <path
       style="fill:#58595b"
       inkscape:connector-curvature="0"
       d="m 709,188.3 8.2,-8.4 -1.4,-3.5 -8.3,8.4 z"
       id="path204" />
    <path
       style="fill:#ffe18c"
       inkscape:connector-curvature="0"
       d="m 715.1,181.1 1.5,-1.6 -0.8,-1.9 -1.5,1.5 z m -6,6 1.5,-1.6 -0.8,-1.9 -1.5,1.6 z"
       id="path206" />
    <path
       style="fill:#65bae8"
       inkscape:connector-curvature="0"
       d="m 706.2,182.5 7.6,-7.6 -6.2,-5 -7.6,7.6 z"
       id="path208" />
    <defs
       id="defs210">
      <path
         inkscape:connector-curvature="0"
         id="a"
         d="m 706.2,182.5 7.6,-7.6 -6.2,-5 -7.6,7.6 z" />
    </defs>
    <clipPath
       id="b">
      <use
         height="100%"
         width="100%"
         y="0"
         x="0"
         style="overflow:visible"
         xlink:href="#a"
         overflow="visible"
         id="use214" />
    </clipPath>
    <path
       style="opacity:0.3;fill:#ffffff"
       inkscape:connector-curvature="0"
       clip-path="url(#b)"
       d="m 715.11,174.576 -16.347,2.246 -0.136,-0.99 16.347,-2.246 z m 0.876,1.964 -16.346,2.246 -0.136,-0.99 16.346,-2.247 z"
       id="path216" />
    <ellipse
       style="fill:#231f20"
       transform="matrix(-0.9,0.437,-0.437,-0.9,1420.755,48.476)"
       cx="704.79999"
       cy="187.5"
       rx="1.8"
       ry="4"
       id="ellipse218" />
    <path
       style="fill:#231f20"
       inkscape:connector-curvature="0"
       d="m 706.7,191 -2.3,2.2 -3.7,-6.5 2.2,-2.7 z"
       id="path220" />
    <path
       style="fill:#404041"
       inkscape:connector-curvature="0"
       d="m 701,190.7 c 0.9,1.9 2.3,3 3.2,2.6 0.9,-0.4 0.9,-2.3 0,-4.1 -0.9,-1.9 -2.3,-3 -3.2,-2.6 -0.9,0.4 -0.9,2.2 0,4.1 z"
       id="path222" />
    <path
       style="fill:none;stroke:#696a6c;stroke-width:0.25;stroke-miterlimit:10"
       inkscape:connector-curvature="0"
       stroke-miterlimit="10"
       d="m 701.2,190.6 c 0.8,1.6 2,2.6 2.8,2.2 0.8,-0.4 0.7,-2 0,-3.6 -0.8,-1.6 -2,-2.6 -2.8,-2.2 -0.8,0.4 -0.8,2 0,3.6 z"
       id="path224" />
    <ellipse
       style="fill:#fdc163"
       transform="matrix(-0.9,0.437,-0.437,-0.9,1417.518,53.895)"
       cx="702.59998"
       cy="189.89999"
       rx="0.69999999"
       ry="1.5"
       id="ellipse226" />
    <ellipse
       style="fill:#bd924a"
       transform="matrix(-0.899,0.437,-0.437,-0.899,1417.767,53.252)"
       cx="702.79999"
       cy="189.8"
       rx="0.5"
       ry="1.2"
       id="ellipse228" />
    <path
       style="fill:#79a3ad"
       inkscape:connector-curvature="0"
       d="m 708.7,189.9 -3.1,0 -1.3,-1.8 -4.8,0.1 0.2,1.6 -1.7,-0.1 -1.4,-3.3 7.8,-2.9 1.6,1.8 z"
       id="path230" />
    <ellipse
       style="fill:#231f20"
       transform="matrix(-0.9,0.436,-0.436,-0.9,1390.674,57.835)"
       cx="688.70001"
       cy="188.60001"
       rx="1.8"
       ry="4"
       id="ellipse232" />
    <path
       style="fill:#231f20"
       inkscape:connector-curvature="0"
       d="m 690.6,192 -2.3,2.3 -3.7,-6.5 2.2,-2.7 z"
       id="path234" />
    <ellipse
       style="fill:#404041"
       transform="matrix(-0.9,0.436,-0.436,-0.9,1387.488,63.528)"
       cx="686.5"
       cy="191"
       rx="1.8"
       ry="3.7"
       id="ellipse236" />
    <ellipse
       style="fill:none;stroke:#696a6c;stroke-width:0.25;stroke-miterlimit:10"
       transform="matrix(-0.9,0.436,-0.436,-0.9,1387.446,63.261)"
       stroke-miterlimit="10"
       cx="686.5"
       cy="191"
       rx="1.5"
       ry="3.2"
       id="ellipse238" />
    <ellipse
       style="fill:#fdc163"
       transform="matrix(-0.9,0.436,-0.436,-0.9,1387.537,63.8)"
       cx="686.5"
       cy="191"
       rx="0.69999999"
       ry="1.5"
       id="ellipse240" />
    <ellipse
       style="fill:#bd924a"
       transform="matrix(-0.9,0.435,-0.435,-0.9,1387.908,63.818)"
       cx="686.59998"
       cy="190.89999"
       rx="0.5"
       ry="1.2"
       id="ellipse242" />
    <path
       style="fill:#ffffff"
       inkscape:connector-curvature="0"
       d="m 692.6,191 -3.1,0 -1.3,-1.8 -4.8,0.1 0.2,1.6 -1.7,-0.1 -1.4,-3.3 7.5,-3.6 1.9,2.4 z"
       id="path244" />
    <ellipse
       style="fill:#231f20"
       transform="matrix(-0.9,0.436,-0.436,-0.9,1374.279,61.185)"
       cx="680.09998"
       cy="188.39999"
       rx="1.8"
       ry="4"
       id="ellipse246" />
    <path
       style="fill:#231f20"
       inkscape:connector-curvature="0"
       d="m 682,191.9 -2.3,2.3 -3.6,-6.6 2.1,-2.6 z"
       id="path248" />
    <ellipse
       style="fill:#404041"
       transform="matrix(-0.9,0.437,-0.437,-0.9,1371.048,66.621)"
       cx="677.90002"
       cy="190.89999"
       rx="1.8"
       ry="3.7"
       id="ellipse250" />
    <ellipse
       style="fill:none;stroke:#696a6c;stroke-width:0.25;stroke-miterlimit:10"
       transform="matrix(-0.9,0.436,-0.436,-0.9,1371.119,66.984)"
       stroke-miterlimit="10"
       cx="677.90002"
       cy="190.89999"
       rx="1.5"
       ry="3.2"
       id="ellipse252" />
    <ellipse
       style="fill:#fdc163"
       transform="matrix(-0.9,0.436,-0.436,-0.9,1371.133,67.095)"
       cx="677.90002"
       cy="190.89999"
       rx="0.69999999"
       ry="1.5"
       id="ellipse254" />
    <ellipse
       style="fill:#bd924a"
       transform="matrix(-0.9,0.436,-0.436,-0.9,1371.501,67.088)"
       cx="678.09998"
       cy="190.8"
       rx="0.5"
       ry="1.2"
       id="ellipse256" />
    <path
       style="fill:#ffffff"
       inkscape:connector-curvature="0"
       d="m 684,190.8 -3.1,0 -1.3,-1.7 -4.8,0.1 0.2,1.5 -1.7,0 -1.4,-3.4 7.5,-3.5 1.9,2.4 z"
       id="path258" />
    <ellipse
       style="fill:#231f20"
       transform="matrix(-0.9,0.437,-0.437,-0.9,1356.027,65.241)"
       cx="670.5"
       cy="188.5"
       rx="1.8"
       ry="4"
       id="ellipse260" />
    <path
       style="fill:#231f20"
       inkscape:connector-curvature="0"
       d="m 672.4,191.9 -2.3,2.3 -3.6,-6.5 2.1,-2.7 z"
       id="path262" />
    <path
       style="fill:#404041"
       inkscape:connector-curvature="0"
       d="m 666.7,191.7 c 0.9,1.9 2.3,3 3.2,2.6 0.9,-0.4 0.9,-2.3 0,-4.1 -0.9,-1.9 -2.3,-3 -3.2,-2.6 -0.9,0.4 -0.9,2.2 0,4.1 z"
       id="path264" />
    <ellipse
       style="fill:none;stroke:#696a6c;stroke-width:0.25;stroke-miterlimit:10"
       transform="matrix(-0.9,0.436,-0.436,-0.9,1352.894,71.214)"
       stroke-miterlimit="10"
       cx="668.29999"
       cy="190.89999"
       rx="1.5"
       ry="3.2"
       id="ellipse266" />
    <ellipse
       style="fill:#fdc163"
       transform="matrix(-0.899,0.437,-0.437,-0.899,1352.727,70.296)"
       cx="668.29999"
       cy="190.89999"
       rx="0.69999999"
       ry="1.5"
       id="ellipse268" />
    <ellipse
       style="fill:#bd924a"
       transform="matrix(-0.9,0.436,-0.436,-0.9,1353.221,71.012)"
       cx="668.5"
       cy="190.8"
       rx="0.5"
       ry="1.2"
       id="ellipse270" />
    <path
       style="fill:#ffffff"
       inkscape:connector-curvature="0"
       d="m 674.4,190.9 -3.1,0 -1.3,-1.8 -4.8,0.1 0.2,1.6 -1.7,-0.1 -1.4,-3.3 7.5,-3.6 1.9,2.5 z"
       id="path272" />
    <path
       style="fill:#5a7d83"
       inkscape:connector-curvature="0"
       d="m 700.6,186.2 1,0.1 1.2,-4.6 -0.9,-0.1 -2.2,2.3 z"
       id="path274" />
    <path
       style="fill:#668b92"
       inkscape:connector-curvature="0"
       d="m 701.6,186.3 2.2,-2.2 -1,-2.4 -2.2,2.2 z"
       id="path276" />
    <path
       style="fill:#be1e2d"
       inkscape:connector-curvature="0"
       d="m 663,186.1 26.2,0.3 -0.5,-1.1 -26.2,-0.4 z"
       id="path278" />
    <path
       style="fill:#faaf40"
       inkscape:connector-curvature="0"
       d="m 663.6,187.5 26.1,0.3 -0.4,-1.1 -26.2,-0.4 z"
       id="path280" />
  </g>
  <ellipse
     style="opacity:0.2"
     id="ellipse284"
     ry="2.5"
     rx="9.8000002"
     cy="35.200001"
     cx="31.9" />
  <path
     style="fill:#7d4b19"
     inkscape:connector-curvature="0"
     id="path286"
     d="m 29,34.3 2.8,0.7 3,-0.5 0.5,-19.1 -5.8,-0.2 z" />
  <path
     style="fill:#603913"
     inkscape:connector-curvature="0"
     id="path288"
     d="M 29,34.3 31.6,35 32.1,15.3 29.5,15.2 Z" />
  <path
     style="opacity:0.3;fill:#1d1d1b"
     inkscape:connector-curvature="0"
     id="path290"
     d="M 29.2,26.9 35,27.1 35.3,15.4 29.5,15.2 Z" />
  <path
     style="fill:#39b54a"
     inkscape:connector-curvature="0"
     id="path292"
     d="M 39.6,24.5 46.9,12.6 40.2,0.3 26.3,0 19,11.9 25.7,24.1 Z" />
  <path
     style="fill:#7d4b19"
     inkscape:connector-curvature="0"
     id="path294"
     d="m 34.526,30.188 -0.78,-1.04 3.284,-2.457 0.78,1.042 z" />
  <path
     style="fill:#30993f"
     inkscape:connector-curvature="0"
     id="path296"
     d="m 39.6,24.5 -7,-12.9 -6.9,12.5 z" />
  <path
     style="fill:#37ad47"
     inkscape:connector-curvature="0"
     id="path298"
     d="M 19,11.9 32.6,11.6 25.7,24.1 Z" />
  <path
     style="fill:#35a644"
     inkscape:connector-curvature="0"
     id="path300"
     d="m 46.9,12.6 -14.3,-1 7,12.9 z" />
  <path
     style="fill:#39b048"
     inkscape:connector-curvature="0"
     id="path302"
     d="m 40.2,0.3 -7.6,11.3 14.3,1 z" />
  <path
     style="fill:#3bba4c"
     inkscape:connector-curvature="0"
     id="path304"
     d="M 26.3,0 32.6,11.6 40.2,0.3 Z" />
  <path
     style="fill:#39b54a"
     inkscape:connector-curvature="0"
     id="path306"
     d="M 19,11.9 32.6,11.6 26.3,0 Z" />
  <path
     style="opacity:0.2"
     inkscape:connector-curvature="0"
     id="path308"
     d="m 172.6,232.6 c 0,2.2 -7,4 -15.7,4 -8.7,0 -15.7,-1.8 -15.7,-4 0,-2.2 7,-4 15.7,-4 8.6,0 15.7,1.8 15.7,4 z" />
  <path
     style="fill:#7d4b19"
     inkscape:connector-curvature="0"
     id="path310"
     d="m 152.1,231.3 4.6,1.1 4.8,-0.9 0.8,-30.7 -9.5,-0.3 z" />
  <path
     style="fill:#603913"
     inkscape:connector-curvature="0"
     id="path312"
     d="m 152.1,231.3 4.2,1.1 0.8,-31.8 -4.3,-0.1 z" />
  <path
     style="opacity:0.3;fill:#1d1d1b"
     inkscape:connector-curvature="0"
     id="path314"
     d="m 152.4,219.4 9.4,0.2 0.5,-18.8 -9.5,-0.3 z" />
  <path
     style="fill:#39b54a"
     inkscape:connector-curvature="0"
     id="path316"
     d="m 169.2,215.4 11.7,-19.1 -10.8,-19.8 -22.4,-0.5 -11.7,19.1 10.7,19.7 z" />
  <path
     style="fill:#7d4b19"
     inkscape:connector-curvature="0"
     id="path318"
     d="m 161,224.67 -1.318,-1.76 5.285,-3.954 1.317,1.76 z" />
  <path
     style="fill:#30993f"
     inkscape:connector-curvature="0"
     id="path320"
     d="M 169.2,215.4 158,194.7 146.7,214.8 Z" />
  <path
     style="fill:#37ad47"
     inkscape:connector-curvature="0"
     id="path322"
     d="m 136,195.1 22,-0.4 -11.3,20.1 z" />
  <path
     style="fill:#35a644"
     inkscape:connector-curvature="0"
     id="path324"
     d="m 180.9,196.3 -22.9,-1.6 11.2,20.7 z" />
  <path
     style="fill:#39b048"
     inkscape:connector-curvature="0"
     id="path326"
     d="m 170.1,176.5 -12.1,18.2 22.9,1.6 z" />
  <path
     style="fill:#3bba4c"
     inkscape:connector-curvature="0"
     id="path328"
     d="m 147.7,176 10.3,18.7 12.1,-18.2 z" />
  <path
     style="fill:#39b54a"
     inkscape:connector-curvature="0"
     id="path330"
     d="M 136,195.1 158,194.7 147.7,176 Z" />
  <path
     style="opacity:0.2"
     inkscape:connector-curvature="0"
     id="path332"
     d="m 37.8,140.6 c 0,2.3 -7.3,4.2 -16.3,4.2 -9,0 -16.3,-1.9 -16.3,-4.2 0,-2.3 7.3,-4.2 16.3,-4.2 9,0.1 16.3,1.9 16.3,4.2 z" />
  <path
     style="fill:#7d4b19"
     inkscape:connector-curvature="0"
     id="path334"
     d="m 16.6,139.2 4.8,1.2 5,-0.9 0.8,-31.9 -9.8,-0.2 z" />
  <path
     style="fill:#603913"
     inkscape:connector-curvature="0"
     id="path336"
     d="m 16.6,139.2 4.4,1.2 0.8,-32.9 -4.4,-0.1 z" />
  <path
     style="opacity:0.3;fill:#1d1d1b"
     inkscape:connector-curvature="0"
     id="path338"
     d="m 16.9,126.9 9.8,0.2 0.5,-19.5 -9.8,-0.2 z" />
  <path
     style="fill:#39b54a"
     inkscape:connector-curvature="0"
     id="path340"
     d="M 34.3,122.8 46.4,103 35.3,82.6 12.1,82 0,101.8 11.1,122.2 Z" />
  <path
     style="fill:#7d4b19"
     inkscape:connector-curvature="0"
     id="path342"
     d="m 25.893,132.36 -1.317,-1.763 5.527,-4.13 1.316,1.76 z" />
  <path
     style="fill:#30993f"
     inkscape:connector-curvature="0"
     id="path344"
     d="M 34.3,122.8 22.7,101.3 11.1,122.2 Z" />
  <path
     style="fill:#37ad47"
     inkscape:connector-curvature="0"
     id="path346"
     d="m 0,101.8 22.7,-0.5 -11.6,20.9 z" />
  <path
     style="fill:#35a644"
     inkscape:connector-curvature="0"
     id="path348"
     d="m 46.4,103 -23.7,-1.7 11.6,21.5 z" />
  <path
     style="fill:#39b048"
     inkscape:connector-curvature="0"
     id="path350"
     d="M 35.3,82.6 22.7,101.3 46.4,103 Z" />
  <path
     style="fill:#3bba4c"
     inkscape:connector-curvature="0"
     id="path352"
     d="M 12.1,82 22.7,101.3 35.3,82.6 Z" />
  <path
     style="fill:#39b54a"
     inkscape:connector-curvature="0"
     id="path354"
     d="M 0,101.8 22.7,101.3 12.1,82 Z" />
  <path
     style="opacity:0.2"
     inkscape:connector-curvature="0"
     id="path356"
     d="m 851.24184,174.29301 c 0,1.5 -4.7,2.7 -10.5,2.7 -5.8,0 -10.5,-1.2 -10.5,-2.7 0,-1.5 4.7,-2.7 10.5,-2.7 5.8,0 10.5,1.2 10.5,2.7 z"
     inkscape:export-filename="/tmp/a.png"
     inkscape:export-xdpi="90"
     inkscape:export-ydpi="90" />
  <path
     style="fill:#7d4b19"
     inkscape:connector-curvature="0"
     id="path358"
     d="m 837.54184,173.39301 3.1,0.7 3.2,-0.5 0.5,-20.6 -6.3,-0.1 z"
     inkscape:export-filename="/tmp/a.png"
     inkscape:export-xdpi="90"
     inkscape:export-ydpi="90" />
  <path
     style="fill:#603913"
     inkscape:connector-curvature="0"
     id="path360"
     d="m 837.54184,173.39301 2.8,0.7 0.5,-21.1 -2.8,-0.1 z"
     inkscape:export-filename="/tmp/a.png"
     inkscape:export-xdpi="90"
     inkscape:export-ydpi="90" />
  <path
     style="opacity:0.3;fill:#1d1d1b"
     inkscape:connector-curvature="0"
     id="path362"
     d="m 837.74184,165.49301 6.3,0.1 0.3,-12.6 -6.3,-0.1 z"
     inkscape:export-filename="/tmp/a.png"
     inkscape:export-xdpi="90"
     inkscape:export-ydpi="90" />
  <path
     style="fill:#39b54a"
     inkscape:connector-curvature="0"
     id="path364"
     d="m 848.94184,162.79301 7.8,-12.8 -7.1,-13.1 -15,-0.4 -7.8,12.8 7.2,13.1 z"
     inkscape:export-filename="/tmp/a.png"
     inkscape:export-xdpi="90"
     inkscape:export-ydpi="90" />
  <path
     style="fill:#7d4b19"
     inkscape:connector-curvature="0"
     id="path366"
     d="m 843.54584,168.92301 -0.837,-1.123 3.526,-2.63 0.837,1.12 z"
     inkscape:export-filename="/tmp/a.png"
     inkscape:export-xdpi="90"
     inkscape:export-ydpi="90" />
  <path
     style="fill:#30993f"
     inkscape:connector-curvature="0"
     id="path368"
     d="m 848.94184,162.79301 -7.5,-13.8 -7.4,13.4 z"
     inkscape:export-filename="/tmp/a.png"
     inkscape:export-xdpi="90"
     inkscape:export-ydpi="90" />
  <path
     style="fill:#37ad47"
     inkscape:connector-curvature="0"
     id="path370"
     d="m 826.84184,149.29301 14.6,-0.3 -7.4,13.4 z"
     inkscape:export-filename="/tmp/a.png"
     inkscape:export-xdpi="90"
     inkscape:export-ydpi="90" />
  <path
     style="fill:#35a644"
     inkscape:connector-curvature="0"
     id="path372"
     d="m 856.74184,149.99301 -15.3,-1 7.5,13.8 z"
     inkscape:export-filename="/tmp/a.png"
     inkscape:export-xdpi="90"
     inkscape:export-ydpi="90" />
  <path
     style="fill:#39b048"
     inkscape:connector-curvature="0"
     id="path374"
     d="m 849.64184,136.89301 -8.2,12.1 15.3,1 z"
     inkscape:export-filename="/tmp/a.png"
     inkscape:export-xdpi="90"
     inkscape:export-ydpi="90" />
  <path
     style="fill:#3bba4c"
     inkscape:connector-curvature="0"
     id="path376"
     d="m 834.64184,136.49301 6.8,12.5 8.2,-12.1 z"
     inkscape:export-filename="/tmp/a.png"
     inkscape:export-xdpi="90"
     inkscape:export-ydpi="90" />
  <path
     style="fill:#39b54a"
     inkscape:connector-curvature="0"
     id="path378"
     d="m 826.84184,149.29301 14.6,-0.3 -6.8,-12.5 z"
     inkscape:export-filename="/tmp/a.png"
     inkscape:export-xdpi="90"
     inkscape:export-ydpi="90" />
  <path
     style="opacity:0.2"
     inkscape:connector-curvature="0"
     id="path380"
     d="m 876.24184,173.49301 c 0,1.9 -6.1,3.4 -13.5,3.4 -7.5,0 -13.5,-1.5 -13.5,-3.4 0,-1.9 6.1,-3.5 13.5,-3.5 7.5,0.1 13.5,1.6 13.5,3.5 z"
     inkscape:export-filename="/tmp/a.png"
     inkscape:export-xdpi="90"
     inkscape:export-ydpi="90" />
  <path
     style="fill:#7d4b19"
     inkscape:connector-curvature="0"
     id="path382"
     d="m 858.64184,172.39301 4,0.9 4.1,-0.7 0.7,-26.5 -8.1,-0.2 z"
     inkscape:export-filename="/tmp/a.png"
     inkscape:export-xdpi="90"
     inkscape:export-ydpi="90" />
  <path
     style="fill:#603913"
     inkscape:connector-curvature="0"
     id="path384"
     d="m 858.64184,172.39301 3.6,0.9 0.7,-27.3 -3.6,-0.1 z"
     inkscape:export-filename="/tmp/a.png"
     inkscape:export-xdpi="90"
     inkscape:export-ydpi="90" />
  <path
     style="opacity:0.3;fill:#1d1d1b"
     inkscape:connector-curvature="0"
     id="path386"
     d="m 858.94184,162.09301 8.1,0.2 0.4,-16.2 -8.1,-0.2 z"
     inkscape:export-filename="/tmp/a.png"
     inkscape:export-xdpi="90"
     inkscape:export-ydpi="90" />
  <path
     style="fill:#39b54a"
     inkscape:connector-curvature="0"
     id="path388"
     d="m 873.34184,158.69301 10.1,-16.5 -9.3,-16.9 -19.2,-0.5 -10.1,16.5 9.2,16.9 z"
     inkscape:export-filename="/tmp/a.png"
     inkscape:export-xdpi="90"
     inkscape:export-ydpi="90" />
  <path
     style="fill:#7d4b19"
     inkscape:connector-curvature="0"
     id="path390"
     d="m 866.32184,166.58301 -1.137,-1.523 4.567,-3.412 1.137,1.522 z"
     inkscape:export-filename="/tmp/a.png"
     inkscape:export-xdpi="90"
     inkscape:export-ydpi="90" />
  <path
     style="fill:#30993f"
     inkscape:connector-curvature="0"
     id="path392"
     d="m 873.34184,158.69301 -9.6,-17.8 -9.7,17.3 z"
     inkscape:export-filename="/tmp/a.png"
     inkscape:export-xdpi="90"
     inkscape:export-ydpi="90" />
  <path
     style="fill:#37ad47"
     inkscape:connector-curvature="0"
     id="path394"
     d="m 844.84184,141.29301 18.9,-0.4 -9.7,17.3 z"
     inkscape:export-filename="/tmp/a.png"
     inkscape:export-xdpi="90"
     inkscape:export-ydpi="90" />
  <path
     style="fill:#35a644"
     inkscape:connector-curvature="0"
     id="path396"
     d="m 883.44184,142.19301 -19.7,-1.3 9.6,17.8 z"
     inkscape:export-filename="/tmp/a.png"
     inkscape:export-xdpi="90"
     inkscape:export-ydpi="90" />
  <path
     style="fill:#39b048"
     inkscape:connector-curvature="0"
     id="path398"
     d="m 874.14184,125.29301 -10.4,15.6 19.7,1.3 z"
     inkscape:export-filename="/tmp/a.png"
     inkscape:export-xdpi="90"
     inkscape:export-ydpi="90" />
  <path
     style="fill:#3bba4c"
     inkscape:connector-curvature="0"
     id="path400"
     d="m 854.94184,124.79301 8.8,16.1 10.4,-15.6 z"
     inkscape:export-filename="/tmp/a.png"
     inkscape:export-xdpi="90"
     inkscape:export-ydpi="90" />
  <path
     style="fill:#39b54a"
     inkscape:connector-curvature="0"
     id="path402"
     d="m 844.84184,141.29301 18.9,-0.4 -8.8,-16.1 z"
     inkscape:export-filename="/tmp/a.png"
     inkscape:export-xdpi="90"
     inkscape:export-ydpi="90" />
  <path
     style="opacity:0.2"
     inkscape:connector-curvature="0"
     id="path404"
     d="m 1071.3,254.9 c 0.1,1.9 -5.9,3.7 -13.4,4 -7.5,0.3 -13.6,-1 -13.6,-2.9 -0.1,-1.9 5.9,-3.7 13.4,-4 7.4,-0.4 13.5,0.9 13.6,2.9 z" />
  <path
     style="fill:#7d4b19"
     inkscape:connector-curvature="0"
     id="path406"
     d="m 1053.6,254.4 4,0.8 4.2,-0.9 -0.4,-26.5 -8.1,0.1 z" />
  <path
     style="fill:#603913"
     inkscape:connector-curvature="0"
     id="path408"
     d="m 1053.6,254.4 3.7,0.8 -0.4,-27.3 -3.6,0 z" />
  <path
     style="opacity:0.3;fill:#1d1d1b"
     inkscape:connector-curvature="0"
     id="path410"
     d="m 1053.5,244.1 8.1,-0.1 -0.2,-16.2 -8.1,0.1 z" />
  <path
     style="fill:#39b54a"
     inkscape:connector-curvature="0"
     id="path412"
     d="m 1067.8,240.1 9.4,-16.8 -9.9,-16.6 -19.2,0.3 -9.5,16.8 9.9,16.6 z" />
  <path
     style="fill:#7d4b19"
     inkscape:connector-curvature="0"
     id="path414"
     d="m 1061.067,248.36 -1.194,-1.478 4.433,-3.583 1.194,1.477 z" />
  <path
     style="fill:#30993f"
     inkscape:connector-curvature="0"
     id="path416"
     d="m 1067.8,240.1 -10.3,-17.4 -9,17.7 z" />
  <path
     style="fill:#37ad47"
     inkscape:connector-curvature="0"
     id="path418"
     d="m 1038.6,223.8 18.9,-1.1 -9,17.7 z" />
  <path
     style="fill:#35a644"
     inkscape:connector-curvature="0"
     id="path420"
     d="m 1077.2,223.3 -19.7,-0.6 10.3,17.4 z" />
  <path
     style="fill:#39b048"
     inkscape:connector-curvature="0"
     id="path422"
     d="m 1067.3,206.7 -9.8,16 19.7,0.6 z" />
  <path
     style="fill:#3bba4c"
     inkscape:connector-curvature="0"
     id="path424"
     d="m 1048.1,207 9.4,15.7 9.8,-16 z" />
  <path
     style="fill:#39b54a"
     inkscape:connector-curvature="0"
     id="path426"
     d="m 1038.6,223.8 18.9,-1.1 -9.4,-15.7 z" />
  <path
     style="opacity:0.2"
     inkscape:connector-curvature="0"
     id="path428"
     d="m 1343.5,97.5 c 0,1.1 -3.4,2.1 -7.7,2.3 -4.3,0.2 -7.8,-0.6 -7.9,-1.7 0,-1.1 3.4,-2.1 7.7,-2.3 4.3,-0.1 7.9,0.6 7.9,1.7 z" />
  <path
     style="fill:#7d4b19"
     inkscape:connector-curvature="0"
     id="path430"
     d="m 1333.3,97.3 2.3,0.4 2.4,-0.5 -0.2,-15.3 -4.7,0.1 z" />
  <path
     style="fill:#603913"
     inkscape:connector-curvature="0"
     id="path432"
     d="m 1333.3,97.3 2.1,0.4 -0.2,-15.8 -2.1,0.1 z" />
  <path
     style="opacity:0.3;fill:#1d1d1b"
     inkscape:connector-curvature="0"
     id="path434"
     d="m 1337.903,91.31 -4.7,0.067 -0.132,-9.4 4.7,-0.065 z" />
  <path
     style="fill:#39b54a"
     inkscape:connector-curvature="0"
     id="path436"
     d="m 1341.5,89 5.4,-9.7 -5.7,-9.6 -11.1,0.2 -5.5,9.7 5.7,9.6 z" />
  <path
     style="fill:#7d4b19"
     inkscape:connector-curvature="0"
     id="path438"
     d="m 1337.69,93.846 -0.692,-0.856 2.566,-2.075 0.69,0.856 z" />
  <path
     style="fill:#30993f"
     inkscape:connector-curvature="0"
     id="path440"
     d="m 1341.5,89 -6,-10 -5.2,10.2 z" />
  <path
     style="fill:#37ad47"
     inkscape:connector-curvature="0"
     id="path442"
     d="m 1324.6,79.6 10.9,-0.6 -5.2,10.2 z" />
  <path
     style="fill:#35a644"
     inkscape:connector-curvature="0"
     id="path444"
     d="m 1346.9,79.3 -11.4,-0.3 6,10 z" />
  <path
     style="fill:#39b048"
     inkscape:connector-curvature="0"
     id="path446"
     d="m 1341.2,69.7 -5.7,9.3 11.4,0.3 z" />
  <path
     style="fill:#3bba4c"
     inkscape:connector-curvature="0"
     id="path448"
     d="m 1330.1,69.9 5.4,9.1 5.7,-9.3 z" />
  <path
     style="fill:#39b54a"
     inkscape:connector-curvature="0"
     id="path450"
     d="m 1324.6,79.6 10.9,-0.6 -5.4,-9.1 z" />
  <path
     style="opacity:0.2"
     inkscape:connector-curvature="0"
     id="path452"
     d="m 68.2,188.3 c 0,3 -9.5,5.4 -21.2,5.4 -11.7,0 -21.2,-2.4 -21.2,-5.4 0,-3 9.5,-5.4 21.2,-5.4 11.7,0 21.2,2.4 21.2,5.4 z" />
  <path
     style="fill:#7d4b19"
     inkscape:connector-curvature="0"
     id="path454"
     d="m 40.7,186.5 6.2,1.4 6.5,-1.1 1,-41.5 -12.7,-0.3 z" />
  <path
     style="fill:#603913"
     inkscape:connector-curvature="0"
     id="path456"
     d="m 40.7,186.5 5.6,1.4 1.1,-42.7 -5.7,-0.2 z" />
  <path
     style="opacity:0.3;fill:#1d1d1b"
     inkscape:connector-curvature="0"
     id="path458"
     d="m 41,170.4 12.7,0.3 0.7,-25.4 -12.7,-0.3 z" />
  <path
     style="fill:#39b54a"
     inkscape:connector-curvature="0"
     id="path460"
     d="M 63.6,165 79.4,139.3 64.9,112.7 34.7,112 19,137.8 33.4,164.3 Z" />
  <path
     style="fill:#7d4b19"
     inkscape:connector-curvature="0"
     id="path462"
     d="m 52.643,177.484 -1.738,-2.322 7.128,-5.33 1.737,2.32 z" />
  <path
     style="fill:#30993f"
     inkscape:connector-curvature="0"
     id="path464"
     d="m 63.6,165 -15,-27.8 -15.2,27.1 z" />
  <path
     style="fill:#37ad47"
     inkscape:connector-curvature="0"
     id="path466"
     d="m 19,137.8 29.6,-0.6 -15.2,27.1 z" />
  <path
     style="fill:#35a644"
     inkscape:connector-curvature="0"
     id="path468"
     d="m 79.4,139.3 -30.8,-2.1 15,27.8 z" />
  <path
     style="fill:#39b048"
     inkscape:connector-curvature="0"
     id="path470"
     d="m 64.9,112.7 -16.3,24.5 30.8,2.1 z" />
  <path
     style="fill:#3bba4c"
     inkscape:connector-curvature="0"
     id="path472"
     d="m 34.7,112 13.9,25.2 16.3,-24.5 z" />
  <path
     style="fill:#39b54a"
     inkscape:connector-curvature="0"
     id="path474"
     d="M 19,137.8 48.6,137.2 34.7,112 Z" />
  <path
     style="fill:#3c3539;fill-opacity:0.29585799;fill-rule:evenodd;stroke:#000000;stroke-width:1px;stroke-linecap:butt;stroke-linejoin:miter;stroke-opacity:1"
     d="m 613.04217,158.05201 -116.36868,-3.36119 109.77875,29.06189 c 0,0 11.19587,-3.2779 12.7607,-11.49239 1.62183,-8.51369 -6.17077,-14.20831 -6.17077,-14.20831 z"
     id="path6322"
     inkscape:connector-curvature="0"
     sodipodi:nodetypes="cccsc"
     inkscape:export-filename="/tmp/a.png"
     inkscape:export-xdpi="90"
     inkscape:export-ydpi="90" />
  <path
     style="fill:#3c3539;fill-opacity:0.29585799;fill-rule:evenodd;stroke:#000000;stroke-width:1px;stroke-linecap:butt;stroke-linejoin:miter;stroke-opacity:1"
     d="m 571.27097,195.52224 8.2374,81.05606 71.83016,-53.37838 c 0,0 -4.66896,-20.05754 -31.72128,-30.93267 -28.31289,-11.38188 -48.34628,3.25499 -48.34628,3.25499 z"
     id="path6322-3"
     inkscape:connector-curvature="0"
     sodipodi:nodetypes="cccsc"
     inkscape:export-filename="/tmp/a.png"
     inkscape:export-xdpi="90"
     inkscape:export-ydpi="90" />
  <g
     id="g6582"
     transform="matrix(0.6494294,0,0,0.6494294,201.87178,98.349299)"
     inkscape:export-filename="/tmp/a.png"
     inkscape:export-xdpi="90"
     inkscape:export-ydpi="90">
    <g
       transform="matrix(0.06006202,0,0,0.06006202,562.11096,250.77469)"
       id="g5654"
       style="fill:#ffffff;fill-opacity:1;stroke:#ff0000;stroke-width:42;stroke-miterlimit:4;stroke-dasharray:none;stroke-opacity:1">
      <defs
         id="defs5656">
        <rect
           height="512"
           id="SVGID_1_"
           width="512"
           x="50"
           y="140" />
      </defs>
      <clipPath
         id="clipPath6270">
        <use
           height="100%"
           width="100%"
           y="0"
           x="0"
           style="overflow:visible"
           xlink:href="#SVGID_1_"
           id="use6272" />
      </clipPath>
      <path
         inkscape:connector-curvature="0"
         class="st0"
         d="M 306,629.5 C 434.8,629.5 539.5,524.8 539.5,396 539.5,267.2 434.8,162.5 306,162.5 177.2,162.5 72.5,267.2 72.5,396 72.5,524.8 177.2,629.5 306,629.5 l 0,0 z"
         id="path5662"
         clip-path="url(#SVGID_2_)"
         style="fill:#ffffff;fill-opacity:1;stroke:#ff0000;stroke-width:42;stroke-miterlimit:4;stroke-dasharray:none;stroke-opacity:1" />
    </g>
    <polygon
       transform="matrix(0.06006202,0,0,0.06006202,562.11096,250.77469)"
       class="st1"
       points="263.3,396 164,495.3 206.7,538 306,438.7 405.3,538 448,495.3 348.7,396 348.7,396 448,296.7 405.3,254 306,353.3 206.7,254 164,296.7 "
       id="polygon5664"
       style="fill:#ff0000;fill-opacity:1;stroke:#ff0000;stroke-width:2.29999995;stroke-miterlimit:4;stroke-dasharray:none;stroke-opacity:1" />
  </g>
  <g
     transform="translate(486.65409,145.12368)"
     style="fill:#ffffff;stroke:#2ca02c;stroke-width:2.29999995"
     id="g5015"
     inkscape:export-filename="/tmp/a.png"
     inkscape:export-xdpi="90"
     inkscape:export-ydpi="90">
    <circle
       cx="10"
       cy="10"
       r="8.5"
       id="circle5017" />
    <path
       inkscape:connector-curvature="0"
       d="m 5.2,10 3.3,3.4 6.3,-6.2"
       id="path5019" />
  </g>
</svg>
